<svg width="28" height="29" viewBox="0 0 28 29" fill="none" xmlns="http://www.w3.org/2000/svg">
<path d="M14.2469 1.51133H14.8037C12.9837 3.20242 11.8139 5.47778 11.4976 7.9419C11.1812 10.406 11.7384 12.9031 13.0721 14.999C14.4059 17.095 16.4319 18.6573 18.7981 19.4144C21.1643 20.1715 23.7209 20.0755 26.0237 19.1432C25.1379 21.2745 23.6901 23.1255 21.8349 24.4985C19.9796 25.8716 17.7864 26.7153 15.4892 26.9396C13.192 27.164 10.877 26.7605 8.79118 25.7723C6.70532 24.7841 4.92683 23.2482 3.64542 21.3285C2.36402 19.4088 1.62775 17.1772 1.51518 14.8719C1.4026 12.5665 1.91793 10.2738 3.0062 8.23839C4.09447 6.20295 5.71485 4.5011 7.6945 3.31437C9.67416 2.12764 11.9388 1.50056 14.2469 1.5V1.51133Z" stroke="#1B1971" stroke-opacity="0.94" stroke-width="3" stroke-linecap="round" stroke-linejoin="round"/>
</svg>
